<svg viewBox="0 0 1024 1052.688" xmlns="http://www.w3.org/2000/svg"><path d="M224.977 642.105l395.83-395.83L799.41 424.883l-395.83 395.83zm395.83-299.286L321.52 642.103l82.063 82.062L702.868 424.88zM816.013 21.332C930.88 21.333 1024 114.45 1024 229.32s-93.118 207.985-207.986 207.985c-114.867 0-207.986-93.118-207.986-207.986.13-114.816 93.17-207.857 207.973-207.987h.013zm0 347.705c77.165 0 139.72-62.554 139.72-139.72S893.178 89.6 816.013 89.6c-77.165 0-139.72 62.554-139.72 139.72.08 77.132 62.587 139.64 139.713 139.718h.007zM207.986 629.36c114.867 0 207.986 93.12 207.986 207.987s-93.118 207.986-207.986 207.986C93.12 1045.333 0 952.215 0 837.347.13 722.532 93.17 629.49 207.973 629.36h.012zm0 347.706c77.165 0 139.72-62.554 139.72-139.72S285.15 697.63 207.985 697.63c-77.165 0-139.72 62.554-139.72 139.72.08 77.132 62.587 139.64 139.713 139.718h.006zm173.898-395.49l-144.77-144.27h-72.82C73.575 436.865.18 363.31 0 272.57V103.208l77.37 77.37c11.23 11.9 27.11 19.31 44.72 19.31 13.748 0 26.442-4.516 36.68-12.145l-.164.116c12.948-10.514 21.154-26.432 21.154-44.265 0-15.995-6.6-30.447-17.227-40.783l-.97-.97-77.368-80.508H251.22c90.71.18 164.236 73.497 164.75 164.11v72.866l144.27 144.77zM68.267 256.35v16.202c.103 53.133 43.057 96.2 96.138 96.483H265.33L381.793 485.09l81.92-81.92-116.008-116.508V185.627c-.335-53.06-43.388-95.952-96.476-96.028h-15.573c7.696 15.764 12.196 34.3 12.196 53.89 0 39.57-18.365 74.852-47.036 97.787l-.25.193-.773.592c-21.39 16.212-48.448 25.97-77.786 25.97-19.485 0-37.964-4.304-54.54-12.013l.8.332zm573.85 228.74l144.77 144.27h72.818c90.72.438 164.115 73.992 164.295 164.732v169.364l-77.37-77.37c-11.23-11.9-27.11-19.31-44.72-19.31-13.748 0-26.442 4.516-36.68 12.145l.164-.116c-12.948 10.513-21.154 26.43-21.154 44.264 0 15.996 6.6 30.448 17.227 40.784l.013.013.364.32 80.1 80.1H772.78c-90.71-.18-164.236-73.498-164.75-164.11V808.22L463.76 663.45zm313.616 325.222v-16.202c-.103-53.133-43.057-96.2-96.138-96.483H758.67L642.207 581.575l-81.92 81.92L676.34 779.96v100.123c.335 53.06 43.388 95.952 96.476 96.028h15.162c-7.424-15.52-11.76-33.736-11.76-52.964 0-39.58 18.372-74.868 47.054-97.802l.25-.193.728-.59c21.39-16.213 48.448-25.97 77.786-25.97 19.485 0 37.964 4.303 54.54 12.012l-.8-.333z"/></svg>